<?xml version="1.0" encoding="UTF-8"?>
<svg xmlns="http://www.w3.org/2000/svg" width="96" height="96" viewBox="0 0 96 96" fill="none">
  <circle cx="48" cy="48" r="40" fill="#063B40"></circle>
  <path fill-rule="evenodd" clip-rule="evenodd" d="M32 32h32v32h-8V44c0-2.2091-1.7909-4-4-4H32v-8zm0 12v20h20V44H32zm-4 0V32c0-2.2091 1.7909-4 4-4h32c2.2091 0 4 1.7909 4 4v32c0 2.2091-1.7909 4-4 4H32c-.1381 0-.2745-.007-.409-.0207C29.574 67.7745 28 66.0711 28 64V44z" fill="#fff"></path>
  <rect x="30" y="54" width="12" height="12" rx="2" stroke="#50E6B4" stroke-width="4"></rect>
</svg>
