<?xml version="1.0" encoding="UTF-8"?>
<svg xmlns="http://www.w3.org/2000/svg" width="96" height="96" viewBox="0 0 96 96" fill="none">
  <circle cx="48" cy="48" r="40" fill="#063B40"></circle>
  <path fill-rule="evenodd" clip-rule="evenodd" d="M61.786 41.3754L69.7178 26h4.5008l-8.8777 17.2092A7 7 0 0159.1199 47H36.88a7 7 0 01-6.221-3.7908L21.7812 26h4.5009l7.9318 15.3754A3 3 0 0036.88 43h22.2399a3 3 0 002.6661-1.6246zm0 25L69.7178 51h4.5008l-8.8777 17.2092A7 7 0 0159.1199 72H36.88a7 7 0 01-6.221-3.7908L21.7812 51h4.5009l7.9318 15.3754A3 3 0 0036.88 68h22.2399a3 3 0 002.6661-1.6246z" fill="#fff"></path>
  <path fill-rule="evenodd" clip-rule="evenodd" d="M50 56.9019V26h-4v30.8949L42.1051 53h-5.6569l10.1413 10.1413 1.4143 1.4143 1.4142-1.4144L59.558 53h-5.6565L50 56.9019z" fill="#50E6B4"></path>
</svg>
