<?xml version="1.0" encoding="UTF-8"?>
<svg xmlns="http://www.w3.org/2000/svg" width="96" height="96" viewBox="0 0 96 96" fill="none">
  <circle cx="48" cy="48" r="40" fill="#063B40"></circle>
  <path fill-rule="evenodd" clip-rule="evenodd" d="M48 70c12.1503 0 22-9.8497 22-22 0-.3351-.0075-.6685-.0223-1h4.0034c.0126.3318.0189.6652.0189 1 0 14.3594-11.6406 26-26 26S22 62.3594 22 48s11.6406-26 26-26c7.0861 0 13.5101 2.8348 18.1999 7.4321l-.0003-4.5755 3.9998-3.9998.0008 14.3408.0001 2.0002H53.8584l4-4h6.4174C60.2517 28.7757 54.45 26 48 26c-12.1502 0-22 9.8497-22 22s9.8498 22 22 22z" fill="#fff"></path>
  <path fill-rule="evenodd" clip-rule="evenodd" d="M38.1369 34l10.7908 2.135-2.1349 10.7908-10.7908-2.135L38.1369 34zm12.6396 21.9663c.8895 3.3196-1.0805 6.7317-4.4001 7.6211-3.3196.8895-6.7317-1.0805-7.6211-4.4-.8895-3.3196 1.0805-6.7317 4.4-7.6212 3.3196-.8895 6.7317 1.0805 7.6212 4.4001zm1.6338-13.6225l4.056 13.2495 9.4464-10.1373-13.5024-3.1122z" fill="#50E6B4"></path>
</svg>
