<?xml version="1.0" encoding="UTF-8"?>
<svg xmlns="http://www.w3.org/2000/svg" width="96" height="96" viewBox="0 0 96 96" fill="none">
  <circle cx="48" cy="48" r="40" fill="#063B40"></circle>
  <circle cx="48" cy="48" r="40" fill="#063B40"></circle>
  <circle cx="48" cy="48" r="40" fill="#063B40"></circle>
  <circle cx="48" cy="48" r="40" fill="#063B40"></circle>
  <path fill-rule="evenodd" clip-rule="evenodd" d="M64.9379 62H60.929l-1.64-24.6009C59.0581 33.936 61.8049 31 65.2757 31h9.7244v4h-9.7244c-1.157 0-2.0726.9787-1.9956 2.133L64.9379 62z" fill="#50E6B4"></path>
  <path fill-rule="evenodd" clip-rule="evenodd" d="M41.3733 41.9437L43.6742 35H25.8646l2.3009 6.9437A3 3 0 0031.0132 44h7.5124a3 3 0 002.8477-2.0563zM45.7695 31h3.4441l-4.0434 12.2019C44.2211 46.0663 41.5431 48 38.5256 48h-7.5124c-3.0175 0-5.6955-1.9337-6.6446-4.7981L20.3252 31h25.4443zm-4.3962 31.9437L43.6742 56H25.8646l2.3009 6.9437A3 3 0 0031.0132 65h7.5124a3 3 0 002.8477-2.0563zM45.7695 52h3.4441l-4.0434 12.2019C44.2211 67.0663 41.5431 69 38.5256 69h-7.5124c-3.0175 0-5.6955-1.9337-6.6446-4.7981L20.3252 52h25.4443zM76 48h-2.6274L72.059 63.5064C71.7959 66.6127 69.1978 69 66.0804 69h-6.1601c-3.1174 0-5.7155-2.3873-5.9786-5.4936L52.6282 48H50v-4h26v4zm-19.3575 0h12.7157l-1.2849 15.1688C67.9856 64.2042 67.1196 65 66.0804 65h-6.1601c-1.0391 0-1.9052-.7958-1.9929-1.8312L56.6425 48z" fill="#fff"></path>
</svg>
