<?xml version="1.0" encoding="UTF-8"?>
<svg xmlns="http://www.w3.org/2000/svg" width="96" height="96" viewBox="0 0 96 96" fill="none">
  <circle cx="48" cy="48" r="40" fill="#063B40"></circle>
  <path d="M53 57.7059C53 60.6297 50.7614 63 48 63s-5-2.3703-5-5.2941C43 54.782 48 48 48 48s5 6.782 5 9.7059z" fill="#50E6B4"></path>
  <path fill-rule="evenodd" clip-rule="evenodd" d="M37 26H24v4h11.6369l4.0048 10.1939C40.5437 42.49 42.7592 44 45.2262 44h5.5476c2.467 0 4.6825-1.51 5.5845-3.8061L60.3631 30H71v-4H57.6369l-.4984 1.2687-4.5032 11.4626A2 2 0 0150.7738 40h-5.5476a2 2 0 01-1.8615-1.2687l-4.5032-11.4626L38.3631 26H37zm19.3363 46H39.6639c-2.9387 0-5.445-2.1285-5.9208-5.0284L31.1221 51h4.0535l2.5147 15.3239c.1586.9666.994 1.6761 1.9736 1.6761h16.6724c.9796 0 1.815-.7095 1.9736-1.6761L60.8246 51h4.0535l-2.6209 15.9716C61.7813 69.8715 59.275 72 56.3363 72z" fill="#fff"></path>
</svg>
