<?xml version="1.0" encoding="UTF-8"?>
<svg xmlns="http://www.w3.org/2000/svg" width="96" height="96" viewBox="0 0 96 96" fill="none">
  <circle cx="48" cy="48" r="40" fill="#063B40"></circle>
  <mask id="a" maskUnits="userSpaceOnUse" x="38" y="22" width="26" height="42">
    <path fill="#C4C4C4" d="M38 22h26v42H38z"></path>
  </mask>
  <g mask="url(#a)">
    <path d="M45 66l7.3807-38.7484C52.74 25.3649 54.3895 24 56.31 24H64" stroke="#50E6B4" stroke-width="4"></path>
  </g>
  <path fill-rule="evenodd" clip-rule="evenodd" d="M64.2534 37H68v-4H28v4h3.7466l2.2443 29.4558C34.2292 69.5837 36.8366 72 39.9735 72h16.053c3.1369 0 5.7444-2.4163 5.9827-5.5442L64.2534 37zm-4.0116 0H35.7582l2.2211 29.1519C38.0587 67.1946 38.9279 68 39.9735 68h16.053c1.0457 0 1.9148-.8054 1.9942-1.8481L60.2418 37z" fill="#fff"></path>
</svg>
